<svg width="147" height="18" viewBox="0 0 147 18" fill="none" xmlns="http://www.w3.org/2000/svg">
<path d="M6.088 0.175999H2.08V0.199999C1.024 0.199999 0.16 0.823999 0.16 2.096V15.536C0.16 16.448 0.76 17 1.912 17H6.088C11.464 17 14.872 13.232 14.872 8.6C14.872 3.896 11.488 0.175999 6.088 0.175999ZM6.256 13.472H4V3.68H6.112C9.064 3.68 10.888 5.84 10.888 8.504C10.888 11.096 9.256 13.472 6.256 13.472ZM22.8256 17.24C26.4496 17.24 29.3776 14.312 29.3776 10.64C29.3776 7.016 26.4496 4.088 22.8256 4.088C19.2016 4.088 16.2736 7.016 16.2736 10.64C16.2736 14.312 19.2016 17.24 22.8256 17.24ZM22.8256 13.88C21.0736 13.88 19.6096 12.464 19.6096 10.64C19.6096 8.864 21.0736 7.448 22.8256 7.448C24.6256 7.448 26.0416 8.864 26.0416 10.64C26.0416 12.464 24.6256 13.88 22.8256 13.88ZM38.5831 4.088C36.9271 4.088 35.7271 4.736 34.9591 5.6C34.8631 4.736 34.1191 4.088 33.2551 4.088C32.3191 4.088 31.5511 4.856 31.5511 5.816V16.328C31.5511 16.76 31.7911 17 32.2231 17H34.3111C34.7431 17 34.9831 16.76 34.9831 16.328V9.872C34.9831 8.288 36.0151 7.376 37.3831 7.376C38.7751 7.376 39.7591 8.288 39.7591 9.872V16.328C39.7591 16.76 39.9991 17 40.4311 17H42.5191C42.9511 17 43.1911 16.76 43.1911 16.328V8.864C43.1911 6.128 41.5351 4.088 38.5831 4.088ZM57.6974 0.175999H53.6894V0.199999C52.6334 0.199999 51.7694 0.823999 51.7694 2.096V15.536C51.7694 16.448 52.3694 17 53.5214 17H57.6974C63.0734 17 66.4814 13.232 66.4814 8.6C66.4814 3.896 63.0974 0.175999 57.6974 0.175999ZM57.8654 13.472H55.6094V3.68H57.7214C60.6734 3.68 62.4974 5.84 62.4974 8.504C62.4974 11.096 60.8654 13.472 57.8654 13.472ZM74.4349 17.24C78.0589 17.24 80.9869 14.312 80.9869 10.64C80.9869 7.016 78.0589 4.088 74.4349 4.088C70.8109 4.088 67.8829 7.016 67.8829 10.64C67.8829 14.312 70.8109 17.24 74.4349 17.24ZM74.4349 13.88C72.6829 13.88 71.2189 12.464 71.2189 10.64C71.2189 8.864 72.6829 7.448 74.4349 7.448C76.2349 7.448 77.6509 8.864 77.6509 10.64C77.6509 12.464 76.2349 13.88 74.4349 13.88ZM90.1924 4.088C88.5364 4.088 87.3364 4.736 86.5684 5.6C86.4724 4.736 85.7284 4.088 84.8644 4.088C83.9284 4.088 83.1604 4.856 83.1604 5.816V16.328C83.1604 16.76 83.4004 17 83.8324 17H85.9204C86.3524 17 86.5924 16.76 86.5924 16.328V9.872C86.5924 8.288 87.6244 7.376 88.9924 7.376C90.3844 7.376 91.3684 8.288 91.3684 9.872V16.328C91.3684 16.76 91.6084 17 92.0404 17H94.1284C94.5604 17 94.8004 16.76 94.8004 16.328V8.864C94.8004 6.128 93.1444 4.088 90.1924 4.088ZM109.307 0.175999H105.299V0.199999C104.243 0.199999 103.379 0.823999 103.379 2.096V15.536C103.379 16.448 103.979 17 105.131 17H109.307C114.683 17 118.091 13.232 118.091 8.6C118.091 3.896 114.707 0.175999 109.307 0.175999ZM109.475 13.472H107.219V3.68H109.331C112.283 3.68 114.107 5.84 114.107 8.504C114.107 11.096 112.475 13.472 109.475 13.472ZM126.044 17.24C129.668 17.24 132.596 14.312 132.596 10.64C132.596 7.016 129.668 4.088 126.044 4.088C122.42 4.088 119.492 7.016 119.492 10.64C119.492 14.312 122.42 17.24 126.044 17.24ZM126.044 13.88C124.292 13.88 122.828 12.464 122.828 10.64C122.828 8.864 124.292 7.448 126.044 7.448C127.844 7.448 129.26 8.864 129.26 10.64C129.26 12.464 127.844 13.88 126.044 13.88ZM141.802 4.088C140.146 4.088 138.946 4.736 138.178 5.6C138.082 4.736 137.338 4.088 136.474 4.088C135.538 4.088 134.77 4.856 134.77 5.816V16.328C134.77 16.76 135.01 17 135.442 17H137.53C137.962 17 138.202 16.76 138.202 16.328V9.872C138.202 8.288 139.234 7.376 140.602 7.376C141.994 7.376 142.978 8.288 142.978 9.872V16.328C142.978 16.76 143.218 17 143.65 17H145.738C146.17 17 146.41 16.76 146.41 16.328V8.864C146.41 6.128 144.754 4.088 141.802 4.088Z" fill="#ED1C24"/>
</svg>
