<svg width="89" height="20" viewBox="0 0 89 20" fill="none" xmlns="http://www.w3.org/2000/svg">
<path d="M16.3552 14.5351C15.8952 10.9151 15.3952 6.31507 14.8352 2.49507C14.7152 1.63507 14.0152 1.29507 13.3152 1.29507C12.4952 1.29507 11.9352 1.65507 11.5552 2.59507L8.31517 10.5551L5.07517 2.59507C4.69517 1.65507 4.03517 1.29507 3.41517 1.29507C2.57517 1.29507 1.89517 1.61507 1.75517 2.63507C1.41517 4.95507 0.715166 10.7151 0.295166 14.5351C0.235166 15.0951 0.635166 15.2951 0.995166 15.2951H2.61517C2.97517 15.2951 3.37517 15.0951 3.43517 14.5351L4.15517 7.79507L6.89517 14.5551C7.11517 15.0951 7.31517 15.2951 7.73517 15.2951H8.91517C9.31517 15.2951 9.53517 15.0951 9.75517 14.5351L12.4552 7.81507L13.2152 14.5351C13.2752 15.0951 13.6752 15.2951 14.0352 15.2951H15.6552C16.0152 15.2951 16.4152 15.0951 16.3552 14.5351ZM23.742 4.53507C20.722 4.53507 18.262 6.95507 18.262 10.1951V18.4551C18.262 19.2951 18.902 19.8551 19.702 19.8551C20.482 19.8551 21.122 19.2951 21.122 18.4551V14.6151C21.902 15.2151 22.782 15.4951 23.742 15.4951C26.762 15.4951 29.202 13.0551 29.202 10.0351C29.202 6.97507 26.762 4.53507 23.742 4.53507ZM23.802 12.6951C22.342 12.6951 21.122 11.5151 21.122 10.0351C21.122 8.51507 22.342 7.33507 23.802 7.33507C25.302 7.33507 26.482 8.51507 26.482 10.0351C26.482 11.5151 25.302 12.6951 23.802 12.6951ZM32.4839 3.45507C33.3839 3.45507 34.1239 2.71507 34.1239 1.79507C34.1239 0.89507 33.3839 0.15507 32.4839 0.15507C31.5639 0.15507 30.8239 0.89507 30.8239 1.79507C30.8239 2.71507 31.5639 3.45507 32.4839 3.45507ZM33.9239 5.97507C33.9239 5.17507 33.2839 4.53507 32.4839 4.53507C31.7039 4.53507 31.0639 5.17507 31.0639 5.97507V14.5151C31.0639 15.0351 31.3239 15.2951 31.8439 15.2951H33.1639C33.6639 15.2951 33.9239 15.0351 33.9239 14.5151V5.97507ZM41.4331 12.4351H40.8731C40.0531 12.4351 39.6131 12.1751 39.6131 11.1551L39.6331 7.49507H41.4731C42.2531 7.49507 42.8531 6.87507 42.8531 6.09507C42.8531 5.35507 42.2531 4.73507 41.4731 4.73507H39.6531L39.6731 3.21507C39.6731 2.37507 39.0331 1.81507 38.2731 1.81507C37.4531 1.81507 36.8131 2.37507 36.8131 3.21507V4.73507H36.5531C35.7731 4.73507 35.1731 5.35507 35.1731 6.09507C35.1731 6.87507 35.7731 7.49507 36.5531 7.49507H36.8131V11.3551C36.8131 12.8751 36.9931 13.8551 37.5531 14.4751C38.0731 15.0551 38.8131 15.2951 40.2331 15.2951H41.4331C42.2331 15.2951 42.8731 14.6551 42.8731 13.8551C42.8731 13.0751 42.2331 12.4351 41.4331 12.4351ZM54.4075 9.59507C54.4075 7.09507 51.9675 4.53507 49.0075 4.53507C45.8475 4.53507 43.5075 7.01507 43.5075 10.0551C43.5075 13.2551 45.9075 15.4951 49.3275 15.4951C50.4475 15.4951 51.9275 15.2751 52.8475 14.7551C53.4275 14.4351 53.7275 14.0151 53.7275 13.4751C53.7275 12.7151 53.1275 12.1751 52.4475 12.1751C52.1475 12.1751 51.8875 12.2751 51.6475 12.4151C51.1675 12.6951 50.4075 12.9751 49.4675 12.9751C47.9875 12.9751 46.7675 12.2751 46.4075 11.1951H53.2475C53.8475 11.1951 54.4075 10.7351 54.4075 9.59507ZM46.3475 9.13507C46.5875 8.07507 47.6475 7.17507 48.9675 7.17507C50.2875 7.17507 51.3275 8.07507 51.5675 9.13507H46.3475ZM59.683 13.1151C60.543 13.1151 60.823 12.7751 60.823 12.3351C60.823 11.9551 60.583 11.6951 60.103 11.4951L58.483 10.8551C56.603 10.1151 55.683 8.95507 55.683 7.67507C55.683 6.09507 57.063 4.53507 59.763 4.53507C61.203 4.53507 62.443 4.79507 63.223 5.49507C63.463 5.71507 63.603 6.05507 63.603 6.35507C63.603 6.99507 63.123 7.43507 62.503 7.43507C61.903 7.43507 61.543 7.25507 61.063 7.11507C60.583 6.97507 60.123 6.91507 59.803 6.91507C59.103 6.91507 58.763 7.19507 58.763 7.67507C58.763 8.01507 58.943 8.29507 59.483 8.49507L61.383 9.27507C63.343 10.0551 63.883 11.1751 63.883 12.2351C63.883 13.9551 62.503 15.4951 59.603 15.4951C58.143 15.4951 56.843 15.1351 55.943 14.5951C55.443 14.2951 55.183 13.8951 55.183 13.4951C55.183 12.8551 55.663 12.3551 56.283 12.3551C56.883 12.3551 57.203 12.6151 57.883 12.8151C58.403 12.9751 59.143 13.1151 59.683 13.1151ZM74.4542 4.53507C73.8142 4.53507 73.2742 4.95507 73.0942 5.53507C72.2742 4.83507 71.2942 4.53507 70.2342 4.53507C67.3542 4.53507 64.8942 6.97507 64.8942 9.99507C64.8942 13.0551 67.3542 15.4951 70.2342 15.4951C71.2542 15.4951 72.2142 15.1551 73.0342 14.3751V14.5151C73.0342 15.0351 73.2942 15.2951 73.8142 15.2951H75.1342C75.6342 15.2951 75.8942 15.0351 75.8942 14.5151V5.97507C75.8942 5.17507 75.2542 4.53507 74.4542 4.53507ZM70.3542 12.6951C68.8942 12.6951 67.6742 11.5151 67.6742 9.99507C67.6742 8.51507 68.8942 7.33507 70.3542 7.33507C71.8542 7.33507 73.0342 8.51507 73.0342 9.99507C73.0342 11.5151 71.8542 12.6951 70.3542 12.6951ZM84.2472 4.53507C82.8672 4.53507 81.8672 5.07507 81.2272 5.79507C81.1472 5.07507 80.5272 4.53507 79.8072 4.53507C79.0272 4.53507 78.3872 5.17507 78.3872 5.97507V14.7351C78.3872 15.0951 78.5872 15.2951 78.9472 15.2951H80.6872C81.0472 15.2951 81.2472 15.0951 81.2472 14.7351V9.35507C81.2472 8.03507 82.1072 7.27507 83.2472 7.27507C84.4072 7.27507 85.2272 8.03507 85.2272 9.35507V14.7351C85.2272 15.0951 85.4272 15.2951 85.7872 15.2951H87.5272C87.8872 15.2951 88.0872 15.0951 88.0872 14.7351V8.51507C88.0872 6.23507 86.7072 4.53507 84.2472 4.53507Z" fill="white"/>
</svg>
